# Blender v2.73 (sub 0) OBJ File: ''
# www.blender.org
mtllib pointer.mtl
v 0.000000 -0.750000 -0.500000
v 0.000000 0.750000 0.000000
v 0.097545 -0.750000 -0.490393
v 0.191342 -0.750000 -0.461940
v 0.277785 -0.750000 -0.415735
v 0.353553 -0.750000 -0.353553
v 0.415735 -0.750000 -0.277785
v 0.461940 -0.750000 -0.191342
v 0.490393 -0.750000 -0.097545
v 0.500000 -0.750000 -0.000000
v 0.490393 -0.750000 0.097545
v 0.461940 -0.750000 0.191342
v 0.415735 -0.750000 0.277785
v 0.353553 -0.750000 0.353553
v 0.277785 -0.750000 0.415735
v 0.191342 -0.750000 0.461940
v 0.097545 -0.750000 0.490393
v -0.000000 -0.750000 0.500000
v -0.097545 -0.750000 0.490393
v -0.191342 -0.750000 0.461940
v -0.277785 -0.750000 0.415735
v -0.353554 -0.750000 0.353553
v -0.415735 -0.750000 0.277785
v -0.461940 -0.750000 0.191341
v -0.490393 -0.750000 0.097545
v -0.500000 -0.750000 -0.000000
v -0.490393 -0.750000 -0.097546
v -0.461940 -0.750000 -0.191342
v -0.415734 -0.750000 -0.277786
v -0.353553 -0.750000 -0.353554
v -0.277785 -0.750000 -0.415735
v -0.191341 -0.750000 -0.461940
v -0.097544 -0.750000 -0.490393
v 0.000000 -0.750000 -0.500000
v 0.097545 -0.750000 -0.490393
v 0.191342 -0.750000 -0.461940
v 0.277785 -0.750000 -0.415735
v 0.353553 -0.750000 -0.353553
v 0.415735 -0.750000 -0.277785
v 0.461940 -0.750000 -0.191342
v 0.490393 -0.750000 -0.097545
v 0.500000 -0.750000 -0.000000
v 0.490393 -0.750000 0.097545
v 0.461940 -0.750000 0.191342
v 0.415735 -0.750000 0.277785
v 0.353553 -0.750000 0.353553
v 0.277785 -0.750000 0.415735
v 0.191342 -0.750000 0.461940
v 0.097545 -0.750000 0.490393
v -0.000000 -0.750000 0.500000
v -0.097545 -0.750000 0.490393
v -0.191342 -0.750000 0.461940
v -0.277785 -0.750000 0.415735
v -0.353554 -0.750000 0.353553
v -0.415735 -0.750000 0.277785
v -0.461940 -0.750000 0.191341
v -0.490393 -0.750000 0.097545
v -0.500000 -0.750000 -0.000000
v -0.490393 -0.750000 -0.097546
v -0.461940 -0.750000 -0.191342
v -0.415734 -0.750000 -0.277786
v -0.353553 -0.750000 -0.353554
v -0.277785 -0.750000 -0.415735
v -0.191341 -0.750000 -0.461940
v -0.097544 -0.750000 -0.490393
vn -0.363000 0.316200 -0.876500
vn 0.000000 1.000000 0.000000
vn -0.185100 0.316200 -0.930500
vn 0.000000 0.316200 -0.948700
vn 0.185100 0.316200 -0.930500
vn -0.527100 0.316200 -0.788800
vn -0.670800 0.316200 -0.670800
vn -0.788800 0.316200 -0.527100
vn -0.876500 0.316200 -0.363000
vn -0.930500 0.316200 -0.185100
vn -0.948700 0.316200 -0.000000
vn -0.930500 0.316200 0.185100
vn -0.876500 0.316200 0.363000
vn -0.788800 0.316200 0.527100
vn -0.670800 0.316200 0.670800
vn -0.527100 0.316200 0.788800
vn -0.363000 0.316200 0.876500
vn -0.185100 0.316200 0.930500
vn -0.000000 0.316200 0.948700
vn 0.185100 0.316200 0.930500
vn 0.363000 0.316200 0.876500
vn 0.527100 0.316200 0.788800
vn 0.670800 0.316200 0.670800
vn 0.788800 0.316200 0.527100
vn 0.876500 0.316200 0.363000
vn 0.930500 0.316200 0.185100
vn 0.948700 0.316200 -0.000000
vn 0.930500 0.316200 -0.185100
vn 0.876500 0.316200 -0.363000
vn 0.788800 0.316200 -0.527100
vn 0.670800 0.316200 -0.670800
vn 0.527100 0.316200 -0.788800
vn 0.363000 0.316200 -0.876500
vn 0.000000 -1.000000 0.000000
usemtl Material.001
s 1
f 32//1 2//2 33//3
f 1//4 2//2 3//5
f 31//6 2//2 32//1
f 30//7 2//2 31//6
f 29//8 2//2 30//7
f 28//9 2//2 29//8
f 27//10 2//2 28//9
f 26//11 2//2 27//10
f 25//12 2//2 26//11
f 24//13 2//2 25//12
f 23//14 2//2 24//13
f 22//15 2//2 23//14
f 21//16 2//2 22//15
f 20//17 2//2 21//16
f 19//18 2//2 20//17
f 18//19 2//2 19//18
f 17//20 2//2 18//19
f 16//21 2//2 17//20
f 15//22 2//2 16//21
f 14//23 2//2 15//22
f 13//24 2//2 14//23
f 12//25 2//2 13//24
f 11//26 2//2 12//25
f 10//27 2//2 11//26
f 9//28 2//2 10//27
f 8//29 2//2 9//28
f 7//30 2//2 8//29
f 6//31 2//2 7//30
f 5//32 2//2 6//31
f 4//33 2//2 5//32
f 33//3 2//2 1//4
f 3//5 2//2 4//33
f 34//34 42//34 43//34
f 64//34 65//34 34//34
f 61//34 63//34 64//34
f 63//34 61//34 62//34
f 58//34 59//34 60//34
f 54//34 57//34 58//34
f 57//34 55//34 56//34
f 51//34 53//34 54//34
f 53//34 51//34 52//34
f 46//34 49//34 50//34
f 46//34 47//34 48//34
f 44//34 45//34 46//34
f 34//34 43//34 44//34
f 39//34 41//34 42//34
f 41//34 39//34 40//34
f 39//34 37//34 38//34
f 37//34 35//34 36//34
f 61//34 64//34 34//34
f 58//34 60//34 61//34
f 54//34 55//34 57//34
f 50//34 51//34 54//34
f 46//34 48//34 49//34
f 50//34 44//34 46//34
f 34//34 39//34 42//34
f 34//34 35//34 37//34
f 58//34 61//34 34//34
f 50//34 54//34 58//34
f 34//34 44//34 50//34
f 34//34 37//34 39//34
f 50//34 58//34 34//34
